<svg xmlns="http://www.w3.org/2000/svg" version="1.1" viewBox="0 0 25 25">
  <path fill="#FFF" d="M12.5 23.83c-6.26 0-11.33-5.07-11.33-11.33 0-6.26 5.07-11.33 11.33-11.33 6.26 0 11.33 5.07 11.33 11.33S18.76 23.83 12.5 23.83zM21.77 13.69c-2.22-0.29-4.19-0.31-5.95-0.04 0.73 2.07 1.34 4.31 1.82 6.66C19.86 18.84 21.42 16.45 21.77 13.69zM15.85 21.22c-0.45-2.63-1.07-4.99-1.86-7.17 -2.97 0.89-5.29 2.8-7.23 5.82 1.59 1.24 3.57 1.98 5.74 1.98C13.68 21.85 14.81 21.62 15.85 21.22zM3.15 12.5c0 2.31 0.85 4.43 2.24 6.06 2.37-3.48 5.05-5.29 7.96-6.13 -0.24-0.56-0.49-1.12-0.76-1.67 -2.6 0.79-5.69 1.2-9.42 1.37C3.16 12.25 3.15 12.37 3.15 12.5zM3.36 10.53c2.95-0.13 5.82-0.46 8.46-1.25C10.81 7.49 9.63 5.8 8.29 4.16 5.81 5.42 3.96 7.74 3.36 10.53zM12.5 3.15c-0.82 0-1.61 0.12-2.37 0.31 1.3 1.43 2.48 3.17 3.53 5.17 1.82-0.75 3.49-1.78 4.95-3.2C16.97 4.01 14.84 3.15 12.5 3.15zM19.74 6.58c-1.53 1.55-3.27 2.7-5.34 3.54 0.28 0.61 0.55 1.24 0.81 1.89 2.1-0.32 4.31-0.25 6.62-0.02C21.72 9.95 20.96 8.07 19.74 6.58z" />
</svg>
